<?xml version="1.0" encoding="UTF-8" standalone="no"?>
<!-- Created with Bouml (http://bouml.free.fr/) -->
<!DOCTYPE svg PUBLIC "-//W3C//DTD SVG 1.1//EN" "http://www.w3.org/Graphics/SVG/1.1/DTD/svg11.dtd">
<svg width="1242" height="568" version="1.1" xmlns="http://www.w3.org/2000/svg">
<g>
	<ellipse fill="#ffffc0" stroke="black" stroke-width="1" stroke-opacity="1" cx="605" cy="283" rx="10" ry="10" />
	<line stroke="black" stroke-opacity="1" x1="605" y1="273" x2="610" y2="268" />
	<line stroke="black" stroke-opacity="1" x1="605" y1="273" x2="610" y2="278" />
	<text font-family="Helvetica" font-size="8" fill="#000000" xml:space="preserve" font-weight="bold" text-anchor="middle" x="605" y="303">Cliente</text>
	<line stroke="black" stroke-opacity="1" x1="554" y1="311" x2="656" y2="311" />
	<line stroke="black" stroke-opacity="1" x1="554" y1="319" x2="656" y2="319" />
	<text font-family="Helvetica" font-size="8" fill="#000000" xml:space="preserve" font-weight="bold" x="558" y="329">+</text>
	<text font-family="Helvetica" font-size="8" fill="#000000" xml:space="preserve" x="570" y="329">conectar()</text>
	<text font-family="Helvetica" font-size="8" fill="#000000" xml:space="preserve" font-weight="bold" x="558" y="345">+</text>
	<text font-family="Helvetica" font-size="8" fill="#000000" xml:space="preserve" x="570" y="345">desconectar()</text>
	<text font-family="Helvetica" font-size="8" fill="#000000" xml:space="preserve" font-weight="bold" x="558" y="361">+</text>
	<text font-family="Helvetica" font-size="8" fill="#000000" xml:space="preserve" x="570" y="361">enviarComando()</text>
	<text font-family="Helvetica" font-size="8" fill="#000000" xml:space="preserve" font-weight="bold" x="558" y="377">+</text>
	<text font-family="Helvetica" font-size="8" fill="#000000" xml:space="preserve" x="570" y="377">subirGCode()</text>
</g>
<g>
	<ellipse fill="#ffffc0" stroke="black" stroke-width="1" stroke-opacity="1" cx="275" cy="59" rx="10" ry="10" />
	<text font-family="Helvetica" font-size="8" fill="#000000" xml:space="preserve" font-weight="bold" text-anchor="middle" x="275" y="79">ICommand</text>
	<line stroke="black" stroke-opacity="1" x1="241" y1="87" x2="309" y2="87" />
	<line stroke="black" stroke-opacity="1" x1="241" y1="95" x2="309" y2="95" />
	<text font-family="Helvetica" font-size="8" fill="#000000" xml:space="preserve" font-weight="bold" x="245" y="105">#</text>
	<text font-family="Helvetica" font-size="8" fill="#000000" xml:space="preserve" x="257" y="105">ejecutar()</text>
</g>
<g>
	<line stroke="black" stroke-opacity="1" x1="792" y1="117" x2="800" y2="117" />
	<line stroke="black" stroke-opacity="1" x1="792" y1="107" x2="792" y2="127" />
	<ellipse fill="#ffffc0" stroke="black" stroke-width="1" stroke-opacity="1" cx="810" cy="117" rx="10" ry="10" />
	<text font-family="Helvetica" font-size="8" fill="#000000" xml:space="preserve" font-weight="bold" text-anchor="middle" x="810" y="137">Visualizer</text>
	<line stroke="black" stroke-opacity="1" x1="779" y1="145" x2="841" y2="145" />
	<line stroke="black" stroke-opacity="1" x1="779" y1="153" x2="841" y2="153" />
</g>
<g>
	<ellipse fill="#ffffc0" stroke="black" stroke-width="1" stroke-opacity="1" cx="603" cy="184" rx="10" ry="10" />
	<text font-family="Helvetica" font-size="8" fill="#000000" xml:space="preserve" font-weight="bold" text-anchor="middle" x="603" y="204">ICliente</text>
	<line stroke="black" stroke-opacity="1" x1="578" y1="212" x2="628" y2="212" />
	<line stroke="black" stroke-opacity="1" x1="578" y1="220" x2="628" y2="220" />
</g>
<g>
	<line stroke="black" stroke-opacity="1" x1="450" y1="51" x2="458" y2="51" />
	<line stroke="black" stroke-opacity="1" x1="450" y1="41" x2="450" y2="61" />
	<ellipse fill="#ffffc0" stroke="black" stroke-width="1" stroke-opacity="1" cx="468" cy="51" rx="10" ry="10" />
	<text font-family="Helvetica" font-size="8" fill="#000000" xml:space="preserve" font-weight="bold" text-anchor="middle" x="468" y="71">MenuManager</text>
	<line stroke="black" stroke-opacity="1" x1="409" y1="79" x2="527" y2="79" />
	<line stroke="black" stroke-opacity="1" x1="409" y1="87" x2="527" y2="87" />
	<text font-family="Helvetica" font-size="8" fill="#000000" xml:space="preserve" font-weight="bold" x="413" y="97">+</text>
	<text font-family="Helvetica" font-size="8" fill="#000000" xml:space="preserve" x="425" y="97">seleccionarOpcion()</text>
	<text font-family="Helvetica" font-size="8" fill="#000000" xml:space="preserve" font-weight="bold" x="413" y="113">+</text>
	<text font-family="Helvetica" font-size="8" fill="#000000" xml:space="preserve" x="425" y="113">ejecutaropcion()</text>
</g>
<g>
	<line stroke="black" stroke-opacity="1" x1="784" y1="549" x2="792" y2="549" />
	<line stroke="black" stroke-opacity="1" x1="784" y1="539" x2="784" y2="559" />
	<ellipse fill="#ffffc0" stroke="black" stroke-width="1" stroke-opacity="1" cx="802" cy="549" rx="10" ry="10" />
	<text font-family="Helvetica" font-size="8" fill="#000000" xml:space="preserve" font-weight="bold" text-anchor="middle" x="802" y="569">Alarma</text>
	<line stroke="black" stroke-opacity="1" x1="779" y1="577" x2="825" y2="577" />
	<line stroke="black" stroke-opacity="1" x1="779" y1="585" x2="825" y2="585" />
</g>
<g>
	<line stroke="black" stroke-opacity="1" x1="933" y1="455" x2="941" y2="455" />
	<line stroke="black" stroke-opacity="1" x1="933" y1="445" x2="933" y2="465" />
	<ellipse fill="#ffffc0" stroke="black" stroke-width="1" stroke-opacity="1" cx="951" cy="455" rx="10" ry="10" />
	<text font-family="Helvetica" font-size="8" fill="#000000" xml:space="preserve" font-weight="bold" text-anchor="middle" x="951" y="475">Audio</text>
	<line stroke="black" stroke-opacity="1" x1="931" y1="483" x2="971" y2="483" />
	<line stroke="black" stroke-opacity="1" x1="931" y1="491" x2="971" y2="491" />
</g>
<g>
	<line stroke="black" stroke-opacity="1" x1="794" y1="465" x2="814" y2="465" />
	<ellipse fill="#ffffc0" stroke="black" stroke-width="1" stroke-opacity="1" cx="804" cy="455" rx="10" ry="10" />
	<text font-family="Helvetica" font-size="8" fill="#000000" xml:space="preserve" font-weight="bold" text-anchor="middle" x="804" y="475">RobotController</text>
	<line stroke="black" stroke-opacity="1" x1="756" y1="483" x2="852" y2="483" />
	<line stroke="black" stroke-opacity="1" x1="756" y1="491" x2="852" y2="491" />
</g>
<g>
	<ellipse fill="#ffffc0" stroke="black" stroke-width="1" stroke-opacity="1" cx="603" cy="436" rx="10" ry="10" />
	<text font-family="Helvetica" font-size="8" fill="#000000" xml:space="preserve" font-weight="bold" text-anchor="middle" x="603" y="456">IRobotController</text>
	<line stroke="black" stroke-opacity="1" x1="531" y1="464" x2="675" y2="464" />
	<line stroke="black" stroke-opacity="1" x1="531" y1="472" x2="675" y2="472" />
</g>
<g>
	<ellipse fill="#ffffc0" stroke="black" stroke-width="1" stroke-opacity="1" cx="468" cy="309" rx="10" ry="10" />
	<text font-family="Helvetica" font-size="8" fill="#000000" xml:space="preserve" font-weight="bold" text-anchor="middle" x="468" y="329">IFileManager</text>
	<line stroke="black" stroke-opacity="1" x1="429" y1="337" x2="507" y2="337" />
	<line stroke="black" stroke-opacity="1" x1="429" y1="345" x2="507" y2="345" />
</g>
<g>
	<rect fill="#cbcbcb" stroke="none" stroke-opacity="1" x="283" y="532" width="3" height="51" />
	<rect fill="#cbcbcb" stroke="none" stroke-opacity="1" x="193" y="580" width="93" height="3" />
	<rect fill="#ffffc0" stroke="black" stroke-width="1" stroke-opacity="1" x="189" y="528" width="94" height="52" />
	<text font-family="Helvetica" font-size="8" fill="#000000" xml:space="preserve" text-anchor="middle" x="236" y="538">&lt;&lt;auxiliary&gt;&gt;</text>
	<text font-family="Helvetica" font-size="8" fill="#000000" xml:space="preserve" font-weight="bold" text-anchor="middle" x="236" y="556">MoveCommand</text>
	<line stroke="black" stroke-opacity="1" x1="189" y1="564" x2="283" y2="564" />
	<line stroke="black" stroke-opacity="1" x1="189" y1="572" x2="283" y2="572" />
</g>
<g>
	<rect fill="#cbcbcb" stroke="none" stroke-opacity="1" x="192" y="304" width="3" height="51" />
	<rect fill="#cbcbcb" stroke="none" stroke-opacity="1" x="44" y="352" width="151" height="3" />
	<rect fill="#ffffc0" stroke="black" stroke-width="1" stroke-opacity="1" x="40" y="300" width="152" height="52" />
	<text font-family="Helvetica" font-size="8" fill="#000000" xml:space="preserve" text-anchor="middle" x="116" y="310">&lt;&lt;auxiliary&gt;&gt;</text>
	<text font-family="Helvetica" font-size="8" fill="#000000" xml:space="preserve" font-weight="bold" text-anchor="middle" x="116" y="328">ActivateEffectorCommand</text>
	<line stroke="black" stroke-opacity="1" x1="40" y1="336" x2="192" y2="336" />
	<line stroke="black" stroke-opacity="1" x1="40" y1="344" x2="192" y2="344" />
</g>
<g>
	<line stroke="black" stroke-opacity="1" x1="460" y1="183" x2="480" y2="183" />
	<ellipse fill="#ffffc0" stroke="black" stroke-width="1" stroke-opacity="1" cx="470" cy="173" rx="10" ry="10" />
	<text font-family="Helvetica" font-size="8" fill="#000000" xml:space="preserve" font-weight="bold" text-anchor="middle" x="470" y="193">FileManager</text>
	<line stroke="black" stroke-opacity="1" x1="425" y1="201" x2="515" y2="201" />
	<line stroke="black" stroke-opacity="1" x1="425" y1="209" x2="515" y2="209" />
	<text font-family="Helvetica" font-size="8" fill="#000000" xml:space="preserve" font-weight="bold" x="429" y="219">+</text>
	<text font-family="Helvetica" font-size="8" fill="#000000" xml:space="preserve" x="441" y="219">leerArchivo()</text>
	<text font-family="Helvetica" font-size="8" fill="#000000" xml:space="preserve" font-weight="bold" x="429" y="235">+</text>
	<text font-family="Helvetica" font-size="8" fill="#000000" xml:space="preserve" x="441" y="235">subirArchivo()</text>
</g>
<g>
	<rect fill="#cbcbcb" stroke="none" stroke-opacity="1" x="385" y="304" width="3" height="51" />
	<rect fill="#cbcbcb" stroke="none" stroke-opacity="1" x="279" y="352" width="109" height="3" />
	<rect fill="#ffffc0" stroke="black" stroke-width="1" stroke-opacity="1" x="275" y="300" width="110" height="52" />
	<text font-family="Helvetica" font-size="8" fill="#000000" xml:space="preserve" text-anchor="middle" x="330" y="310">&lt;&lt;auxiliary&gt;&gt;</text>
	<text font-family="Helvetica" font-size="8" fill="#000000" xml:space="preserve" font-weight="bold" text-anchor="middle" x="330" y="328">LoadFileCommand</text>
	<line stroke="black" stroke-opacity="1" x1="275" y1="336" x2="385" y2="336" />
	<line stroke="black" stroke-opacity="1" x1="275" y1="344" x2="385" y2="344" />
</g>
<g>
	<line stroke-dasharray="4,4" stroke="#000000" stroke-opacity="1" x1="238" y1="527" x2="238" y2="262" />
</g>
<g>
	<line stroke-dasharray="4,4" stroke="#000000" stroke-opacity="1" x1="238" y1="262" x2="275" y2="262" />
</g>
<g>
	<line stroke-dasharray="4,4" stroke="#000000" stroke-opacity="1" x1="275" y1="262" x2="275" y2="119" />
	<line stroke="#000000" stroke-opacity="1" x1="275" y1="113" x2="269" y2="119" />
	<line stroke="#000000" stroke-opacity="1" x1="275" y1="113" x2="281" y2="119" />
	<line stroke="#000000" stroke-opacity="1" x1="269" y1="119" x2="281" y2="119" />
</g>
<g>
	<line stroke="black" stroke-opacity="1" x1="309" y1="81" x2="315" y2="87" />
	<line stroke="black" stroke-opacity="1" x1="309" y1="81" x2="315" y2="75" />
	<line stroke-dasharray="4,4" stroke="black" stroke-opacity="1" x1="408" y1="81" x2="309" y2="81" />
</g>
<g>
	<line stroke="black" stroke-opacity="1" x1="755" y1="490" x2="748" y2="484" />
	<line stroke="black" stroke-opacity="1" x1="755" y1="490" x2="749" y2="496" />
	<line stroke-dasharray="4,4" stroke="black" stroke-opacity="1" x1="718" y1="494" x2="755" y2="490" />
</g>
<g>
	<line stroke-dasharray="4,4" stroke="#000000" stroke-opacity="1" x1="118" y1="299" x2="118" y2="262" />
</g>
<g>
	<line stroke="black" stroke-opacity="1" x1="809" y1="161" x2="803" y2="167" />
	<line stroke="black" stroke-opacity="1" x1="809" y1="161" x2="815" y2="167" />
	<line stroke="black" stroke-opacity="1" x1="809" y1="444" x2="809" y2="161" />
</g>
<g>
	<line stroke-dasharray="4,4" stroke="#000000" stroke-opacity="1" x1="755" y1="472" x2="681" y2="472" />
	<line stroke="#000000" stroke-opacity="1" x1="675" y1="472" x2="681" y2="478" />
	<line stroke="#000000" stroke-opacity="1" x1="675" y1="472" x2="681" y2="466" />
	<line stroke="#000000" stroke-opacity="1" x1="681" y1="478" x2="681" y2="466" />
</g>
<g>
	<line stroke-dasharray="4,4" stroke="#000000" stroke-opacity="1" x1="275" y1="262" x2="275" y2="119" />
	<line stroke="#000000" stroke-opacity="1" x1="275" y1="113" x2="269" y2="119" />
	<line stroke="#000000" stroke-opacity="1" x1="275" y1="113" x2="281" y2="119" />
	<line stroke="#000000" stroke-opacity="1" x1="269" y1="119" x2="281" y2="119" />
</g>
<g>
	<line stroke="black" stroke-opacity="1" x1="577" y1="201" x2="570" y2="195" />
	<line stroke="black" stroke-opacity="1" x1="577" y1="201" x2="571" y2="207" />
	<line stroke-dasharray="4,4" stroke="black" stroke-opacity="1" x1="515" y1="202" x2="577" y2="201" />
</g>
<g>
	<line stroke="black" stroke-opacity="1" x1="468" y1="121" x2="462" y2="127" />
	<line stroke="black" stroke-opacity="1" x1="468" y1="121" x2="474" y2="126" />
	<line stroke-dasharray="4,4" stroke="black" stroke-opacity="1" x1="469" y1="162" x2="468" y2="121" />
</g>
<g>
	<line stroke="black" stroke-opacity="1" x1="605" y1="425" x2="610" y2="418" />
	<line stroke="black" stroke-opacity="1" x1="605" y1="425" x2="598" y2="419" />
	<line stroke-dasharray="4,4" stroke="black" stroke-opacity="1" x1="604" y1="384" x2="605" y2="425" />
</g>
<g>
	<line stroke-dasharray="4,4" stroke="black" stroke-opacity="1" x1="718" y1="561" x2="718" y2="494" />
</g>
<g>
	<line stroke-dasharray="4,4" stroke="#000000" stroke-opacity="1" x1="334" y1="299" x2="334" y2="262" />
</g>
<g>
	<line stroke="black" stroke-opacity="1" x1="428" y1="326" x2="421" y2="320" />
	<line stroke="black" stroke-opacity="1" x1="428" y1="326" x2="422" y2="332" />
	<line stroke-dasharray="4,4" stroke="black" stroke-opacity="1" x1="389" y1="327" x2="428" y2="326" />
</g>
<g>
	<line stroke="black" stroke-opacity="1" x1="507" y1="326" x2="513" y2="332" />
	<line stroke="black" stroke-opacity="1" x1="507" y1="326" x2="513" y2="320" />
	<line stroke-dasharray="4,4" stroke="black" stroke-opacity="1" x1="553" y1="326" x2="507" y2="326" />
</g>
<g>
	<line stroke-dasharray="4,4" stroke="#000000" stroke-opacity="1" x1="334" y1="262" x2="275" y2="262" />
</g>
<g>
	<line stroke="black" stroke-opacity="1" x1="628" y1="201" x2="634" y2="207" />
	<line stroke="black" stroke-opacity="1" x1="628" y1="201" x2="634" y2="195" />
	<line stroke-dasharray="4,4" stroke="black" stroke-opacity="1" x1="770" y1="201" x2="628" y2="201" />
</g>
<g>
	<line stroke="black" stroke-opacity="1" x1="930" y1="472" x2="924" y2="466" />
	<line stroke="black" stroke-opacity="1" x1="930" y1="472" x2="924" y2="478" />
	<line stroke="black" stroke-opacity="1" x1="852" y1="472" x2="930" y2="472" />
</g>
<g>
	<line stroke-dasharray="4,4" stroke="black" stroke-opacity="1" x1="287" y1="558" x2="718" y2="561" />
</g>
<g>
	<line stroke-dasharray="4,4" stroke="#000000" stroke-opacity="1" x1="604" y1="267" x2="604" y2="233" />
	<line stroke="#000000" stroke-opacity="1" x1="605" y1="228" x2="598" y2="233" />
	<line stroke="#000000" stroke-opacity="1" x1="605" y1="228" x2="610" y2="234" />
	<line stroke="#000000" stroke-opacity="1" x1="598" y1="233" x2="610" y2="234" />
</g>
<g>
	<line stroke-dasharray="4,4" stroke="#000000" stroke-opacity="1" x1="469" y1="243" x2="468" y2="292" />
	<line stroke="#000000" stroke-opacity="1" x1="468" y1="298" x2="474" y2="292" />
	<line stroke="#000000" stroke-opacity="1" x1="468" y1="298" x2="462" y2="291" />
	<line stroke="#000000" stroke-opacity="1" x1="474" y1="292" x2="462" y2="291" />
</g>
<g>
	<line stroke-dasharray="4,4" stroke="black" stroke-opacity="1" x1="770" y1="444" x2="770" y2="201" />
</g>
<g>
	<line stroke-dasharray="4,4" stroke="#000000" stroke-opacity="1" x1="118" y1="262" x2="275" y2="262" />
</g>
<g>
	<line stroke-dasharray="4,4" stroke="#000000" stroke-opacity="1" x1="275" y1="262" x2="275" y2="119" />
	<line stroke="#000000" stroke-opacity="1" x1="275" y1="113" x2="269" y2="119" />
	<line stroke="#000000" stroke-opacity="1" x1="275" y1="113" x2="281" y2="119" />
	<line stroke="#000000" stroke-opacity="1" x1="269" y1="119" x2="281" y2="119" />
</g>
<g>
	<line stroke="black" stroke-opacity="1" x1="802" y1="538" x2="808" y2="532" />
	<line stroke="black" stroke-opacity="1" x1="802" y1="538" x2="796" y2="531" />
	<line stroke="black" stroke-opacity="1" x1="803" y1="499" x2="802" y2="538" />
</g>
</svg>
